<svg id="svg" version="1.1" width="400" height="400" xmlns="http://www.w3.org/2000/svg" xmlns:xlink="http://www.w3.org/1999/xlink" style="display: block;"><g id="svgg"><path id="path0" d="" stroke="none" fill="#0000ff" fill-rule="evenodd"></path><path id="path1" d="M114.500 25.491 C 115.325 25.578,116.675 25.578,117.500 25.491 C 118.325 25.405,117.650 25.334,116.000 25.334 C 114.350 25.334,113.675 25.405,114.500 25.491 M275.491 25.489 C 276.201 25.577,277.461 25.579,278.291 25.492 C 279.121 25.405,278.540 25.333,277.000 25.331 C 275.460 25.329,274.781 25.400,275.491 25.489 M4.501 304.600 C 4.505 305.480,4.587 305.793,4.683 305.295 C 4.779 304.798,4.775 304.078,4.675 303.695 C 4.575 303.313,4.496 303.720,4.501 304.600 M107.312 374.695 C 108.364 374.777,109.984 374.776,110.912 374.692 C 111.840 374.608,110.980 374.541,109.000 374.542 C 107.020 374.543,106.260 374.612,107.312 374.695 M295.107 374.690 C 295.826 374.779,296.906 374.777,297.507 374.686 C 298.108 374.595,297.520 374.522,296.200 374.524 C 294.880 374.526,294.388 374.601,295.107 374.690 " stroke="none" fill="#0080ff" fill-rule="evenodd"></path><path id="path2" d="M129.520 25.013 C 129.401 25.133,120.865 25.402,110.551 25.611 C 100.238 25.821,89.640 26.079,87.000 26.184 C 84.360 26.289,77.880 26.478,72.600 26.604 C 67.320 26.730,62.100 26.918,61.000 27.023 C 59.900 27.128,54.770 27.386,49.600 27.595 C 40.215 27.975,31.846 28.544,29.200 28.982 C 27.774 29.219,25.369 29.653,24.544 29.822 C 18.025 31.165,11.143 35.845,8.948 40.429 C 8.537 41.288,8.065 41.993,7.900 41.995 C 7.735 41.998,7.600 42.360,7.600 42.800 C 7.600 43.240,7.441 43.600,7.247 43.600 C 7.052 43.600,6.773 44.095,6.625 44.700 C 5.839 47.926,5.521 49.716,5.188 52.783 C 4.987 54.643,4.727 56.414,4.610 56.718 C 4.493 57.022,4.384 59.053,4.366 61.232 C 4.348 63.411,4.169 65.296,3.967 65.420 C 3.765 65.545,3.600 67.941,3.600 70.744 C 3.600 73.547,3.430 76.011,3.221 76.220 C 2.862 76.581,2.656 80.339,2.192 95.000 C 2.081 98.520,1.813 101.760,1.596 102.200 C 0.767 103.884,-0.016 232.944,0.797 233.757 C 1.049 234.009,1.200 238.518,1.200 245.800 C 1.200 252.602,1.358 257.598,1.579 257.820 C 1.788 258.029,2.056 260.900,2.175 264.200 C 2.656 277.484,2.862 280.993,3.186 281.387 C 3.372 281.614,3.548 284.133,3.576 286.985 C 3.605 289.837,3.775 292.267,3.956 292.385 C 4.137 292.503,4.383 295.480,4.504 299.000 C 4.717 305.176,5.685 311.200,6.465 311.200 C 6.649 311.200,6.800 311.650,6.800 312.200 C 6.800 312.750,6.980 313.200,7.200 313.200 C 7.420 313.200,7.600 313.487,7.600 313.838 C 7.600 314.189,7.921 314.954,8.314 315.538 C 8.707 316.122,9.290 317.118,9.609 317.751 C 10.760 320.032,16.562 325.200,17.972 325.200 C 18.207 325.200,18.400 325.380,18.400 325.600 C 18.400 325.820,18.850 326.000,19.400 326.000 C 19.950 326.000,20.400 326.180,20.400 326.400 C 20.400 326.620,20.929 326.800,21.576 326.800 C 22.223 326.800,22.864 326.980,23.000 327.200 C 23.136 327.420,24.011 327.600,24.944 327.600 C 25.877 327.600,26.811 327.767,27.020 327.972 C 27.229 328.176,29.020 328.449,31.000 328.577 C 32.980 328.705,37.210 328.991,40.400 329.212 C 55.655 330.270,75.016 331.094,92.000 331.408 C 98.710 331.532,105.460 331.789,107.000 331.978 C 108.540 332.167,116.370 332.352,124.400 332.389 C 132.430 332.426,139.900 332.606,141.000 332.789 C 142.100 332.972,146.620 333.146,151.045 333.175 L 159.089 333.228 159.745 332.228 C 160.622 330.890,160.769 196.004,159.894 195.278 C 159.558 194.999,150.152 194.787,131.794 194.645 C 94.695 194.358,93.200 194.241,93.200 191.629 C 93.200 190.850,93.671 189.965,94.634 188.934 C 100.061 183.129,106.112 176.878,110.358 172.690 C 113.085 170.001,116.235 166.840,117.358 165.668 C 120.474 162.414,179.408 103.452,183.238 99.756 C 185.087 97.972,187.877 95.182,189.438 93.556 C 192.788 90.067,194.461 88.560,196.497 87.200 C 197.321 86.650,197.996 86.065,197.997 85.900 C 197.999 85.735,198.900 85.600,200.000 85.600 C 201.100 85.600,202.000 85.741,202.000 85.914 C 202.000 86.086,202.508 86.527,203.128 86.894 C 205.175 88.103,206.511 89.417,257.247 140.128 C 311.424 194.277,309.194 191.874,306.500 193.222 C 304.598 194.174,297.418 194.443,268.622 194.640 C 249.385 194.771,240.481 194.966,240.122 195.264 C 239.240 195.996,239.362 330.865,240.246 332.214 L 240.892 333.200 248.546 333.192 C 252.756 333.188,257.370 333.013,258.800 332.804 C 260.230 332.595,268.240 332.401,276.600 332.373 C 284.960 332.344,292.970 332.168,294.400 331.981 C 295.830 331.795,302.220 331.621,308.600 331.596 C 314.980 331.571,321.010 331.386,322.000 331.183 C 322.990 330.981,327.670 330.718,332.400 330.598 C 351.951 330.104,355.037 329.974,355.800 329.610 C 356.240 329.401,358.760 329.128,361.400 329.004 C 371.103 328.548,373.600 328.337,373.600 327.973 C 373.600 327.768,374.399 327.600,375.376 327.600 C 376.353 327.600,377.264 327.420,377.400 327.200 C 377.536 326.980,378.087 326.800,378.624 326.800 C 379.161 326.800,379.600 326.620,379.600 326.400 C 379.600 326.180,379.872 326.000,380.205 326.000 C 380.761 326.000,382.324 325.277,382.800 324.799 C 382.910 324.689,383.538 324.329,384.195 323.999 C 386.584 322.801,392.400 316.296,392.400 314.823 C 392.400 314.584,392.559 314.077,392.753 313.695 C 393.602 312.026,393.983 310.855,394.378 308.700 C 394.610 307.435,394.979 305.455,395.198 304.300 C 395.416 303.145,395.617 300.760,395.644 299.000 C 395.671 297.240,395.851 295.499,396.044 295.130 C 396.237 294.762,396.411 292.469,396.431 290.034 C 396.450 287.599,396.631 285.505,396.833 285.380 C 397.035 285.255,397.200 282.834,397.200 280.000 C 397.200 276.996,397.367 274.744,397.600 274.600 C 397.836 274.454,398.000 272.063,398.000 268.776 C 398.000 265.325,398.152 263.200,398.400 263.200 C 398.656 263.200,398.800 259.733,398.800 253.600 C 398.800 247.467,398.944 244.000,399.200 244.000 C 399.465 244.000,399.600 222.541,399.600 180.424 C 399.600 138.471,399.464 116.763,399.200 116.600 C 398.950 116.445,398.800 112.423,398.800 105.856 C 398.800 99.742,398.641 95.201,398.419 94.979 C 398.210 94.770,397.942 91.539,397.824 87.799 C 397.405 74.487,397.150 69.822,396.818 69.414 C 396.633 69.186,396.458 67.132,396.428 64.849 C 396.398 62.567,396.221 60.407,396.034 60.049 C 395.847 59.692,395.670 58.099,395.640 56.508 C 395.611 54.918,395.410 53.151,395.193 52.582 C 394.977 52.013,394.800 50.930,394.800 50.174 C 394.800 49.418,394.659 48.800,394.487 48.800 C 394.315 48.800,394.137 48.305,394.091 47.700 C 394.000 46.496,393.906 46.255,391.989 42.300 C 391.269 40.815,390.527 39.600,390.340 39.600 C 390.153 39.600,390.000 39.359,390.000 39.065 C 390.000 38.561,387.115 35.423,385.258 33.908 C 383.346 32.348,378.472 30.264,375.800 29.863 C 375.140 29.765,374.150 29.572,373.600 29.436 C 373.050 29.299,371.790 29.123,370.800 29.045 C 369.810 28.967,368.550 28.796,368.000 28.666 C 365.866 28.160,348.349 27.274,334.600 26.976 C 329.320 26.862,322.840 26.621,320.200 26.441 C 317.560 26.260,311.710 26.070,307.200 26.017 C 302.690 25.964,292.610 25.737,284.800 25.513 C 269.956 25.085,129.899 24.634,129.520 25.013 M4.364 339.300 C 4.277 344.456,4.431 345.917,5.692 351.919 C 5.936 353.084,6.286 354.130,6.468 354.242 C 6.651 354.355,6.800 354.761,6.800 355.144 C 6.800 356.019,7.699 357.993,8.100 357.997 C 8.265 357.999,8.400 358.360,8.400 358.800 C 8.400 359.240,8.580 359.600,8.800 359.600 C 9.020 359.600,9.200 359.835,9.200 360.122 C 9.200 360.586,10.501 362.237,12.730 364.600 C 16.472 368.567,21.720 370.612,30.200 371.408 C 31.300 371.511,33.100 371.690,34.200 371.805 C 35.300 371.919,39.710 372.187,44.000 372.399 C 48.290 372.610,52.880 372.872,54.200 372.979 C 55.520 373.086,60.830 373.287,66.000 373.426 C 71.170 373.565,76.120 373.718,77.000 373.766 C 77.880 373.815,85.620 373.982,94.200 374.138 C 102.780 374.293,112.950 374.551,116.800 374.710 C 120.650 374.870,160.160 374.996,204.600 374.992 C 280.197 374.984,294.363 374.839,322.000 373.791 C 325.410 373.662,333.150 373.377,339.200 373.158 C 357.451 372.497,367.131 371.872,372.400 371.014 C 373.170 370.888,374.384 370.691,375.097 370.575 C 375.810 370.460,376.440 370.385,376.497 370.410 C 377.570 370.877,384.761 367.111,387.000 364.910 C 389.637 362.317,393.200 356.590,393.200 354.945 C 393.200 354.645,393.360 354.400,393.555 354.400 C 393.750 354.400,394.009 353.905,394.130 353.300 C 394.251 352.695,394.558 351.390,394.811 350.400 C 395.265 348.626,395.926 339.960,395.667 339.194 C 395.491 338.676,392.800 338.682,392.800 339.200 C 392.800 339.420,392.440 339.600,392.000 339.600 C 391.560 339.600,391.200 339.780,391.200 340.000 C 391.200 340.220,390.840 340.400,390.400 340.400 C 389.960 340.400,389.600 340.580,389.600 340.800 C 389.600 341.020,389.240 341.200,388.800 341.200 C 388.360 341.200,388.000 341.380,388.000 341.600 C 388.000 341.820,387.728 342.000,387.395 342.000 C 387.062 342.000,386.477 342.171,386.095 342.381 C 384.940 343.013,382.694 343.871,381.000 344.326 C 380.120 344.563,378.950 344.878,378.400 345.026 C 374.034 346.203,356.002 347.442,337.800 347.816 C 332.740 347.919,328.240 348.180,327.800 348.395 C 327.360 348.611,323.130 348.880,318.400 348.995 C 313.670 349.110,305.480 349.388,300.200 349.614 C 294.920 349.839,283.945 350.113,275.810 350.222 C 267.011 350.339,260.862 350.578,260.630 350.810 C 260.094 351.346,139.600 351.346,139.600 350.809 C 139.600 350.566,133.993 350.345,124.700 350.224 C 110.744 350.041,102.600 349.773,81.000 348.786 C 76.160 348.565,68.060 348.297,63.000 348.190 C 57.940 348.083,53.440 347.819,53.000 347.602 C 52.560 347.386,49.050 347.121,45.200 347.013 C 33.862 346.697,28.625 346.377,28.220 345.976 C 28.011 345.769,27.034 345.600,26.048 345.600 C 24.165 345.600,23.840 345.523,18.400 343.784 C 15.293 342.791,10.085 340.565,9.600 340.023 C 9.490 339.899,8.905 339.544,8.300 339.232 C 7.695 338.920,7.200 338.515,7.200 338.332 C 7.200 338.150,6.930 338.000,6.600 338.000 C 6.270 338.000,6.000 337.820,6.000 337.600 C 6.000 337.380,5.640 337.200,5.200 337.200 C 4.506 337.200,4.395 337.479,4.364 339.300 " stroke="none" fill="#42c0fb" fill-rule="evenodd"></path><path id="path3" d="M126.505 25.087 C 127.114 25.179,128.014 25.177,128.505 25.082 C 128.997 24.987,128.500 24.911,127.400 24.914 C 126.300 24.917,125.897 24.995,126.505 25.087 M108.112 25.495 C 109.164 25.577,110.784 25.576,111.712 25.492 C 112.640 25.408,111.780 25.341,109.800 25.342 C 107.820 25.343,107.060 25.412,108.112 25.495 M281.700 25.496 C 282.965 25.575,285.035 25.575,286.300 25.496 C 287.565 25.416,286.530 25.351,284.000 25.351 C 281.470 25.351,280.435 25.416,281.700 25.496 M78.705 26.283 C 79.202 26.379,79.922 26.375,80.305 26.275 C 80.687 26.175,80.280 26.096,79.400 26.101 C 78.520 26.105,78.207 26.187,78.705 26.283 M319.505 26.283 C 320.002 26.379,320.722 26.375,321.105 26.275 C 321.487 26.175,321.080 26.096,320.200 26.101 C 319.320 26.105,319.007 26.187,319.505 26.283 M4.558 51.766 C 4.438 52.078,4.405 52.843,4.484 53.466 C 4.602 54.391,4.664 54.287,4.825 52.900 C 5.027 51.151,4.938 50.775,4.558 51.766 M395.995 57.118 L 396.190 59.800 396.317 57.442 C 396.386 56.145,396.299 54.938,396.122 54.760 C 395.945 54.582,395.888 55.643,395.995 57.118 M3.767 59.742 C 3.652 60.040,3.615 61.435,3.685 62.842 L 3.811 65.400 4.005 62.299 C 4.200 59.196,4.156 58.727,3.767 59.742 M396.940 66.000 C 396.940 67.870,397.009 68.635,397.093 67.700 C 397.177 66.765,397.177 65.235,397.093 64.300 C 397.009 63.365,396.940 64.130,396.940 66.000 M2.971 68.932 C 2.859 69.224,2.821 71.069,2.887 73.032 L 3.007 76.600 3.203 72.499 C 3.398 68.432,3.364 67.907,2.971 68.932 M397.597 76.518 L 397.795 80.600 397.913 76.836 C 397.978 74.766,397.890 72.929,397.716 72.754 C 397.542 72.579,397.489 74.273,397.597 76.518 M2.144 84.400 C 2.144 86.490,2.212 87.345,2.294 86.300 C 2.376 85.255,2.376 83.545,2.294 82.500 C 2.212 81.455,2.144 82.310,2.144 84.400 M398.397 91.318 L 398.595 95.400 398.713 91.636 C 398.778 89.566,398.690 87.729,398.516 87.554 C 398.342 87.379,398.289 89.073,398.397 91.318 M1.371 94.932 C 1.259 95.224,1.221 97.069,1.287 99.032 L 1.407 102.600 1.603 98.499 C 1.798 94.432,1.764 93.907,1.371 94.932 M99.600 183.800 C 98.628 184.790,97.923 185.600,98.033 185.600 C 98.143 185.600,99.028 184.790,100.000 183.800 C 100.972 182.810,101.677 182.000,101.567 182.000 C 101.457 182.000,100.572 182.810,99.600 183.800 M1.340 261.200 C 1.340 263.070,1.409 263.835,1.493 262.900 C 1.577 261.965,1.577 260.435,1.493 259.500 C 1.409 258.565,1.340 259.330,1.340 261.200 M398.396 266.318 L 398.592 269.400 398.716 266.640 C 398.784 265.121,398.695 263.735,398.520 263.558 C 398.344 263.381,398.288 264.623,398.396 266.318 M2.064 273.676 C 2.029 275.588,2.135 277.237,2.300 277.339 C 2.465 277.442,2.550 276.418,2.489 275.063 C 2.289 270.652,2.129 270.130,2.064 273.676 M397.744 278.400 C 397.744 280.490,397.812 281.345,397.894 280.300 C 397.976 279.255,397.976 277.545,397.894 276.500 C 397.812 275.455,397.744 276.310,397.744 278.400 M2.864 285.076 C 2.829 287.098,2.935 288.837,3.100 288.939 C 3.265 289.042,3.350 287.928,3.290 286.463 C 3.097 281.823,2.930 281.279,2.864 285.076 M396.797 289.282 C 396.689 291.417,396.742 293.020,396.916 292.845 C 397.091 292.670,397.179 290.923,397.114 288.964 L 396.994 285.400 396.797 289.282 M3.746 296.200 C 3.747 298.400,3.814 299.249,3.895 298.087 C 3.976 296.924,3.976 295.124,3.893 294.087 C 3.811 293.049,3.745 294.000,3.746 296.200 M396.131 298.200 C 396.133 299.740,396.205 300.321,396.292 299.491 C 396.379 298.661,396.377 297.401,396.289 296.691 C 396.200 295.981,396.129 296.660,396.131 298.200 M395.168 305.700 C 395.049 306.560,395.110 307.050,395.312 306.848 C 395.505 306.655,395.598 305.981,395.519 305.349 C 395.387 304.291,395.359 304.319,395.168 305.700 M388.386 320.700 L 386.200 323.000 388.500 320.814 C 390.637 318.782,390.983 318.400,390.686 318.400 C 390.624 318.400,389.589 319.435,388.386 320.700 M12.000 321.400 C 12.746 322.170,13.447 322.800,13.557 322.800 C 13.667 322.800,13.146 322.170,12.400 321.400 C 11.654 320.630,10.953 320.000,10.843 320.000 C 10.733 320.000,11.254 320.630,12.000 321.400 M3.867 337.467 C 3.499 337.835,3.529 344.309,3.900 344.538 C 4.065 344.640,4.200 343.031,4.200 340.962 C 4.200 338.893,4.185 337.200,4.167 337.200 C 4.148 337.200,4.013 337.320,3.867 337.467 M395.800 343.000 C 395.800 345.268,395.935 347.040,396.100 346.938 C 396.265 346.836,396.400 345.064,396.400 343.000 C 396.400 340.936,396.265 339.164,396.100 339.062 C 395.935 338.960,395.800 340.732,395.800 343.000 M71.300 373.876 C 71.685 373.976,72.315 373.976,72.700 373.876 C 73.085 373.775,72.770 373.693,72.000 373.693 C 71.230 373.693,70.915 373.775,71.300 373.876 M328.500 373.876 C 328.885 373.976,329.515 373.976,329.900 373.876 C 330.285 373.775,329.970 373.693,329.200 373.693 C 328.430 373.693,328.115 373.775,328.500 373.876 M98.900 374.696 C 100.165 374.775,102.235 374.775,103.500 374.696 C 104.765 374.616,103.730 374.551,101.200 374.551 C 98.670 374.551,97.635 374.616,98.900 374.696 M299.900 374.693 C 300.835 374.777,302.365 374.777,303.300 374.693 C 304.235 374.609,303.470 374.540,301.600 374.540 C 299.730 374.540,298.965 374.609,299.900 374.693 M121.305 375.087 C 121.914 375.179,122.814 375.177,123.305 375.082 C 123.797 374.987,123.300 374.911,122.200 374.914 C 121.100 374.917,120.697 374.995,121.305 375.087 M286.305 375.083 C 286.802 375.179,287.522 375.175,287.905 375.075 C 288.287 374.975,287.880 374.896,287.000 374.901 C 286.120 374.905,285.807 374.987,286.305 375.083 " stroke="none" fill="#00ffff" fill-rule="evenodd"></path><path id="path4" d="M119.700 25.487 C 120.305 25.578,121.295 25.578,121.900 25.487 C 122.505 25.395,122.010 25.320,120.800 25.320 C 119.590 25.320,119.095 25.395,119.700 25.487 M91.280 25.898 C 93.194 25.971,96.434 25.971,98.480 25.898 C 100.526 25.826,98.960 25.766,95.000 25.765 C 91.040 25.765,89.366 25.824,91.280 25.898 M298.523 25.899 C 301.120 25.969,305.260 25.968,307.723 25.898 C 310.185 25.828,308.060 25.771,303.000 25.772 C 297.940 25.772,295.925 25.829,298.523 25.899 M65.500 26.697 C 67.095 26.773,69.705 26.773,71.300 26.697 C 72.895 26.621,71.590 26.559,68.400 26.559 C 65.210 26.559,63.905 26.621,65.500 26.697 M75.105 26.683 C 75.602 26.779,76.322 26.775,76.705 26.675 C 77.087 26.575,76.680 26.496,75.800 26.501 C 74.920 26.505,74.607 26.587,75.105 26.683 M323.100 26.682 C 323.595 26.778,324.405 26.778,324.900 26.682 C 325.395 26.587,324.990 26.509,324.000 26.509 C 323.010 26.509,322.605 26.587,323.100 26.682 M329.300 26.698 C 331.225 26.771,334.375 26.771,336.300 26.698 C 338.225 26.625,336.650 26.565,332.800 26.565 C 328.950 26.565,327.375 26.625,329.300 26.698 M46.500 27.498 C 48.425 27.571,51.575 27.571,53.500 27.498 C 55.425 27.425,53.850 27.365,50.000 27.365 C 46.150 27.365,44.575 27.425,46.500 27.498 M348.500 27.497 C 350.205 27.572,352.995 27.572,354.700 27.497 C 356.405 27.422,355.010 27.361,351.600 27.361 C 348.190 27.361,346.795 27.422,348.500 27.497 M32.900 28.276 C 33.285 28.376,33.915 28.376,34.300 28.276 C 34.685 28.175,34.370 28.093,33.600 28.093 C 32.830 28.093,32.515 28.175,32.900 28.276 M36.105 28.287 C 36.714 28.379,37.614 28.377,38.105 28.282 C 38.597 28.187,38.100 28.111,37.000 28.114 C 35.900 28.117,35.497 28.195,36.105 28.287 M364.900 28.276 C 365.285 28.376,365.915 28.376,366.300 28.276 C 366.685 28.175,366.370 28.093,365.600 28.093 C 364.830 28.093,364.515 28.175,364.900 28.276 M371.300 29.076 C 371.685 29.176,372.315 29.176,372.700 29.076 C 373.085 28.975,372.770 28.893,372.000 28.893 C 371.230 28.893,370.915 28.975,371.300 29.076 M4.901 53.000 C 4.905 53.880,4.987 54.193,5.083 53.695 C 5.179 53.198,5.175 52.478,5.075 52.095 C 4.975 51.713,4.896 52.120,4.901 53.000 M395.701 56.200 C 395.705 57.080,395.787 57.393,395.883 56.895 C 395.979 56.398,395.975 55.678,395.875 55.295 C 395.775 54.913,395.696 55.320,395.701 56.200 M4.101 61.000 C 4.105 61.880,4.187 62.193,4.283 61.695 C 4.379 61.198,4.375 60.478,4.275 60.095 C 4.175 59.713,4.096 60.120,4.101 61.000 M396.528 64.800 C 396.528 66.230,396.601 66.815,396.689 66.100 C 396.778 65.385,396.778 64.215,396.689 63.500 C 396.601 62.785,396.528 63.370,396.528 64.800 M4.093 64.000 C 4.093 64.770,4.175 65.085,4.276 64.700 C 4.376 64.315,4.376 63.685,4.276 63.300 C 4.175 62.915,4.093 63.230,4.093 64.000 M3.344 72.400 C 3.344 74.490,3.412 75.345,3.494 74.300 C 3.576 73.255,3.576 71.545,3.494 70.500 C 3.412 69.455,3.344 70.310,3.344 72.400 M397.346 76.600 C 397.347 78.800,397.414 79.649,397.495 78.487 C 397.576 77.324,397.576 75.524,397.493 74.487 C 397.411 73.449,397.345 74.400,397.346 76.600 M2.483 83.867 C 2.437 85.884,2.296 87.864,2.170 88.267 C 1.957 88.945,1.973 88.948,2.385 88.308 C 2.658 87.885,2.779 86.179,2.698 83.908 L 2.566 80.200 2.483 83.867 M398.144 91.200 C 398.144 93.290,398.212 94.145,398.294 93.100 C 398.376 92.055,398.376 90.345,398.294 89.300 C 398.212 88.255,398.144 89.110,398.144 91.200 M207.800 91.200 C 208.659 92.080,209.499 92.800,209.666 92.800 C 209.832 92.800,209.242 92.080,208.353 91.200 C 207.464 90.320,206.624 89.600,206.487 89.600 C 206.350 89.600,206.941 90.320,207.800 91.200 M191.238 91.540 C 190.929 91.903,189.671 93.280,188.443 94.600 C 186.509 96.678,186.609 96.612,189.186 94.115 C 190.824 92.528,192.081 91.151,191.982 91.055 C 191.882 90.959,191.547 91.178,191.238 91.540 M1.744 98.400 C 1.744 100.490,1.812 101.345,1.894 100.300 C 1.976 99.255,1.976 97.545,1.894 96.500 C 1.812 95.455,1.744 96.310,1.744 98.400 M182.786 100.300 L 180.600 102.600 182.900 100.414 C 185.037 98.382,185.383 98.000,185.086 98.000 C 185.024 98.000,183.989 99.035,182.786 100.300 M232.400 115.325 C 232.400 115.394,232.985 115.979,233.700 116.625 L 235.000 117.800 233.825 116.500 C 232.730 115.288,232.400 115.016,232.400 115.325 M128.575 154.500 L 127.400 155.800 128.700 154.625 C 129.415 153.979,130.000 153.394,130.000 153.325 C 130.000 153.016,129.670 153.288,128.575 154.500 M124.521 158.280 C 123.157 159.666,122.172 160.800,122.333 160.800 C 122.724 160.800,127.403 156.057,127.177 155.890 C 127.080 155.818,125.884 156.893,124.521 158.280 M120.800 162.143 C 120.250 162.648,119.263 163.678,118.606 164.431 C 117.949 165.184,118.444 164.816,119.706 163.614 C 121.784 161.633,122.203 161.174,121.900 161.213 C 121.845 161.220,121.350 161.638,120.800 162.143 M113.400 169.544 C 112.300 170.604,111.140 171.815,110.823 172.235 C 110.505 172.656,111.450 171.835,112.923 170.412 C 115.365 168.050,115.794 167.583,115.500 167.609 C 115.445 167.613,114.500 168.484,113.400 169.544 M107.600 175.269 C 104.741 178.305,104.808 178.401,107.781 175.529 C 109.091 174.264,110.081 173.162,109.981 173.081 C 109.882 172.999,108.810 173.983,107.600 175.269 M302.793 186.108 C 305.320 188.689,307.449 190.800,307.524 190.800 C 307.867 190.800,305.478 188.296,302.000 185.008 C 298.376 181.583,298.413 181.634,302.793 186.108 M104.300 194.282 C 104.795 194.378,105.605 194.378,106.100 194.282 C 106.595 194.187,106.190 194.109,105.200 194.109 C 104.210 194.109,103.805 194.187,104.300 194.282 M1.742 261.400 C 1.741 263.380,1.808 264.240,1.892 263.312 C 1.976 262.384,1.977 260.764,1.895 259.712 C 1.812 258.660,1.743 259.420,1.742 261.400 M398.137 266.600 C 398.139 268.360,398.209 269.030,398.293 268.089 C 398.378 267.149,398.377 265.709,398.291 264.889 C 398.205 264.070,398.136 264.840,398.137 266.600 M2.540 274.000 C 2.540 275.870,2.609 276.635,2.693 275.700 C 2.777 274.765,2.777 273.235,2.693 272.300 C 2.609 271.365,2.540 272.130,2.540 274.000 M397.370 274.933 C 397.258 275.227,397.220 276.982,397.286 278.833 L 397.407 282.200 397.604 278.299 C 397.799 274.425,397.763 273.910,397.370 274.933 M3.331 286.200 C 3.333 287.740,3.405 288.321,3.492 287.491 C 3.579 286.661,3.577 285.401,3.489 284.691 C 3.400 283.981,3.329 284.660,3.331 286.200 M396.556 285.771 C 396.435 286.085,396.404 286.760,396.486 287.271 C 396.595 287.954,396.688 287.804,396.837 286.700 C 397.047 285.147,396.936 284.781,396.556 285.771 M396.524 290.600 C 396.526 291.920,396.601 292.412,396.690 291.693 C 396.779 290.974,396.777 289.894,396.686 289.293 C 396.595 288.692,396.522 289.280,396.524 290.600 M4.146 296.200 C 4.147 298.400,4.214 299.249,4.295 298.087 C 4.376 296.924,4.376 295.124,4.293 294.087 C 4.211 293.049,4.145 294.000,4.146 296.200 M395.709 299.200 C 395.709 300.190,395.787 300.595,395.882 300.100 C 395.978 299.605,395.978 298.795,395.882 298.300 C 395.787 297.805,395.709 298.210,395.709 299.200 M107.105 332.283 C 107.602 332.379,108.322 332.375,108.705 332.275 C 109.087 332.175,108.680 332.096,107.800 332.101 C 106.920 332.105,106.607 332.187,107.105 332.283 M293.105 332.283 C 293.602 332.379,294.322 332.375,294.705 332.275 C 295.087 332.175,294.680 332.096,293.800 332.101 C 292.920 332.105,292.607 332.187,293.105 332.283 M140.500 333.076 C 140.885 333.176,141.515 333.176,141.900 333.076 C 142.285 332.975,141.970 332.893,141.200 332.893 C 140.430 332.893,140.115 332.975,140.500 333.076 M257.905 333.083 C 258.402 333.179,259.122 333.175,259.505 333.075 C 259.887 332.975,259.480 332.896,258.600 332.901 C 257.720 332.905,257.407 332.987,257.905 333.083 M4.114 339.400 C 4.117 340.500,4.195 340.903,4.287 340.295 C 4.379 339.686,4.377 338.786,4.282 338.295 C 4.187 337.803,4.111 338.300,4.114 339.400 M395.742 343.400 C 395.741 345.380,395.808 346.240,395.892 345.312 C 395.976 344.384,395.977 342.764,395.895 341.712 C 395.812 340.660,395.743 341.420,395.742 343.400 M4.101 343.000 C 4.105 343.880,4.187 344.193,4.283 343.695 C 4.379 343.198,4.375 342.478,4.275 342.095 C 4.175 341.713,4.096 342.120,4.101 343.000 M372.900 371.076 C 373.285 371.176,373.915 371.176,374.300 371.076 C 374.685 370.975,374.370 370.893,373.600 370.893 C 372.830 370.893,372.515 370.975,372.900 371.076 M31.100 371.889 C 31.815 371.978,32.985 371.978,33.700 371.889 C 34.415 371.801,33.830 371.728,32.400 371.728 C 30.970 371.728,30.385 371.801,31.100 371.889 M365.500 371.889 C 366.215 371.978,367.385 371.978,368.100 371.889 C 368.815 371.801,368.230 371.728,366.800 371.728 C 365.370 371.728,364.785 371.801,365.500 371.889 M39.911 372.693 C 40.851 372.778,42.291 372.777,43.111 372.691 C 43.930 372.605,43.160 372.536,41.400 372.537 C 39.640 372.539,38.970 372.609,39.911 372.693 M45.900 372.689 C 46.615 372.778,47.785 372.778,48.500 372.689 C 49.215 372.601,48.630 372.528,47.200 372.528 C 45.770 372.528,45.185 372.601,45.900 372.689 M352.100 372.687 C 352.705 372.778,353.695 372.778,354.300 372.687 C 354.905 372.595,354.410 372.520,353.200 372.520 C 351.990 372.520,351.495 372.595,352.100 372.687 M356.691 372.689 C 357.401 372.777,358.661 372.779,359.491 372.692 C 360.321 372.605,359.740 372.533,358.200 372.531 C 356.660 372.529,355.981 372.600,356.691 372.689 M58.900 373.498 C 60.825 373.571,63.975 373.571,65.900 373.498 C 67.825 373.425,66.250 373.365,62.400 373.365 C 58.550 373.365,56.975 373.425,58.900 373.498 M334.920 373.498 C 336.855 373.572,339.915 373.571,341.720 373.497 C 343.524 373.423,341.940 373.363,338.200 373.364 C 334.460 373.364,332.984 373.425,334.920 373.498 M83.100 374.298 C 84.915 374.372,87.885 374.372,89.700 374.298 C 91.515 374.223,90.030 374.163,86.400 374.163 C 82.770 374.163,81.285 374.223,83.100 374.298 M311.100 374.298 C 312.915 374.372,315.885 374.372,317.700 374.298 C 319.515 374.223,318.030 374.163,314.400 374.163 C 310.770 374.163,309.285 374.223,311.100 374.298 M113.507 374.690 C 114.226 374.779,115.306 374.777,115.907 374.686 C 116.508 374.595,115.920 374.522,114.600 374.524 C 113.280 374.526,112.788 374.601,113.507 374.690 M291.500 374.682 C 291.995 374.778,292.805 374.778,293.300 374.682 C 293.795 374.587,293.390 374.509,292.400 374.509 C 291.410 374.509,291.005 374.587,291.500 374.682 " stroke="none" fill="#80ffff" fill-rule="evenodd"></path></g></svg>