<svg width="19" height="21" viewBox="0 0 19 21" fill="none" xmlns="http://www.w3.org/2000/svg">
<g opacity="0.3">
<path d="M8.79238 19.2333C9.8234 19.9862 11.2441 20.1095 12.419 19.4312C13.5938 18.7529 14.1974 17.4609 14.0609 16.1915L8.79238 19.2333Z" fill="#121212"/>
<path d="M2.46973 2.19903C3.24501 1.75142 4.06842 1.45841 4.90384 1.31001L4.85471 1.22491C4.17903 0.0545983 2.67721 -0.347812 1.50693 0.327847L1.33104 0.429399C0.160727 1.10508 -0.241684 2.6069 0.433997 3.77721L0.482502 3.86122C1.02879 3.21289 1.69421 2.64677 2.46973 2.19903Z" fill="#121212"/>
<path d="M17.7575 12.5664L3.80461 20.6221C3.54064 20.7745 3.19607 20.7361 2.99208 20.5095C2.79013 20.2852 2.76095 19.9656 2.93429 19.7199C2.96938 19.6512 3.22116 19.1122 3.12815 17.9748C2.95743 15.8862 1.78627 13.4813 0.833844 11.8317C-0.884624 8.85522 0.138885 5.03567 3.11532 3.31723C6.08471 1.60285 9.89309 2.61716 11.6174 5.57723C11.6218 5.5842 11.626 5.59127 11.6302 5.59843C12.5826 7.24808 14.0797 9.46476 15.8031 10.6569C16.7416 11.3061 17.3343 11.3577 17.4114 11.3616C17.7108 11.3343 17.973 11.5193 18.0663 11.8064C18.1605 12.0963 18.0215 12.414 17.7575 12.5664Z" fill="#121212"/>
</g>
<circle cx="11.8926" cy="4.87891" r="3" fill="#5555A5"/>
</svg>
