<svg xmlns="http://www.w3.org/2000/svg" width="14.601" height="12.167" viewBox="0 0 14.601 12.167"><defs><style>.a{fill:#585c72;}</style></defs><path class="a" d="M12.259,4.738a.609.609,0,0,1-.608-.608V3.217H9.217v.913A.608.608,0,0,1,8,4.129V3.217A1.218,1.218,0,0,1,9.217,2H11.65a1.218,1.218,0,0,1,1.217,1.217v.913A.609.609,0,0,1,12.259,4.738Z" transform="translate(-3.133 -2)"/><path class="a" d="M7.732,13.907a1.253,1.253,0,0,1-.432.073,1.333,1.333,0,0,1-.468-.085L0,11.62v4.642a1.672,1.672,0,0,0,1.673,1.673H12.928A1.672,1.672,0,0,0,14.6,16.262V11.62Z" transform="translate(0 -5.768)"/><path class="a" d="M14.6,6.673V8.066L7.446,10.451a.45.45,0,0,1-.292,0L0,8.066V6.673A1.672,1.672,0,0,1,1.673,5H12.928A1.672,1.672,0,0,1,14.6,6.673Z" transform="translate(0 -3.175)"/></svg>