<svg xmlns="http://www.w3.org/2000/svg" width="15.661" height="15.949" viewBox="0 0 15.661 15.949"><defs><style>.a{fill:#fff;}</style></defs><path class="a" d="M11.233,0h-.026A7.824,7.824,0,0,0,5.071,12.7L3.93,15.354a.425.425,0,0,0,.222.56.434.434,0,0,0,.244.03l4.184-.735a7.539,7.539,0,0,0,2.607.453A7.831,7.831,0,0,0,11.233,0ZM8.549,6.265h2.308a.427.427,0,0,1,0,.855H8.549a.427.427,0,1,1,0-.855Zm5.3,2.991h-5.3a.427.427,0,1,1,0-.855h5.3a.427.427,0,0,1,0,.855Z" transform="translate(-3.366)"/></svg>