<svg xmlns="http://www.w3.org/2000/svg" xmlns:xlink="http://www.w3.org/1999/xlink" version="1.1" x="0px" y="0px" viewBox="-260 352 90 112.5" style="enable-background:new -260 352 90 90;" xml:space="preserve"><path d="M-235.4,402.2c-5,0-9,4-9,9s4,9,9,9s9-4,9-9S-230.4,402.2-235.4,402.2z"/><path d="M-222.3,425.8c-1.5-1.3-3.8-3.3-7.5-4.4c-5.9-1.7-10.8,0.3-12.4,1h-0.1c-1.9,0.7-5,2-7.4,5.2c-0.7,1.1-1.4,2.4-1.5,2.6  c-0.3,0.9-0.6,1.6-0.6,2.3c0,0.6,0,1.2,0.2,1.7v0.1c0.1,0.3,0.2,0.6,0.5,0.8c0.2,0.1,0.4,0.3,0.6,0.4l0.3,0.2c0,0.1,0.1,0.1,8,0.1  c4.3,0,11,0,21.4,0h0.1c0.5-0.1,1.3-0.4,1.8-1c0.8-0.8,0.8-1.9,0.8-2.3C-218.1,430-220.8,427.2-222.3,425.8z"/><path d="M-195.4,420.2c5,0,9-4,9-9s-4-9-9-9s-9,4-9,9S-200.4,420.2-195.4,420.2z"/><path d="M-182.3,425.8c-1.5-1.3-3.8-3.3-7.5-4.4c-5.9-1.7-10.8,0.3-12.4,1h-0.1c-1.9,0.7-5,2-7.4,5.2c-0.8,1.2-1.5,2.6-1.5,2.6  c-0.3,0.9-0.6,1.6-0.6,2.3c0,0.6,0,1.2,0.2,1.7v0.1c0.1,0.3,0.2,0.6,0.5,0.8c0.2,0.1,0.4,0.3,0.6,0.4l0.3,0.2c0.1,0.1,0.1,0.1,8,0.1  c4.3,0,11,0,21.4,0h0.1c0.5-0.1,1.3-0.4,1.8-1c0.8-0.8,0.8-1.9,0.8-2.3C-178.1,430-180.8,427.2-182.3,425.8z"/><path d="M-210,390c0.8,0.5,1.6,0.8,2.4,0.9c2.2,0.5,4.5,0.1,6.4-1.1c1.6-1,2.8-2.6,3.4-4.3c0.1,0,0.2,0,0.3,0.1  c4.5,1,9.1-1.9,10.1-6.5v0c1-4.5-1.9-9.1-6.4-10.1c-0.5-0.2-1-0.2-1.4-0.2c-0.9-2.9-3.3-5.1-6.3-5.7c-0.8-0.2-1.6-0.3-2.3-0.2  c-1-2.6-3.2-4.5-6-5.2c-0.3-0.1-1-0.3-1.3-0.3c-3.6-0.8-7.2,0.9-9,3.9c-0.8-0.5-1.6-0.8-2.4-0.9c-2.2-0.5-4.5-0.1-6.4,1.1  c-1.6,1-2.8,2.6-3.4,4.3c-0.1,0-0.2,0-0.3-0.1c-4.5-1-9.1,1.9-10.1,6.5c-1,4.5,1.9,9,6.4,10.1c0.5,0.1,0.9,0.2,1.4,0.2  c0.9,2.9,3.3,5.1,6.3,5.7c0.8,0.2,1.6,0.3,2.3,0.2c1,2.6,3.2,4.5,6,5.2c0.3,0.1,1,0.3,1.3,0.3c0.6,0.1,1.2,0.2,1.8,0.2  C-214.3,394.1-211.5,392.6-210,390z M-218.6,392l-0.2,0c-0.2,0-0.7-0.1-0.8-0.2l-0.2-0.1c-2.4-0.5-4.2-2.3-4.8-4.6l-0.2-0.9  l-0.9,0.2c-0.6,0.1-1.4,0.1-2.4-0.1c-2.5-0.5-4.4-2.4-4.9-4.9l-0.2-0.8h-0.8c-0.5,0-1.1,0-1.6-0.1l-0.1,0c-3.5-0.8-5.7-4.2-4.9-7.7  c0.8-3.5,4.2-5.7,7.7-4.9c0.4,0.1,0.7,0.2,1,0.3l1.4,0.7v-1.6c0.4-1.6,1.4-3,2.8-4c1.5-0.9,3.2-1.3,4.9-0.9c0.9,0.2,1.7,0.6,2.6,1.2  l1,0.8l0.5-1.2c1.2-2.9,4.3-4.5,7.4-3.8l0.2,0c0.2,0,0.7,0.1,0.8,0.2l0.2,0.1c2.4,0.5,4.2,2.3,4.8,4.6l0.2,0.9l0.9-0.2  c0.6-0.1,1.4-0.1,2.4,0.1c2.5,0.5,4.4,2.4,4.9,4.9l0.2,0.8h0.8c0.5,0,1.1,0,1.7,0.2c3.5,0.8,5.7,4.2,4.9,7.7v0  c-0.8,3.5-4.2,5.7-7.7,4.9c-0.4-0.1-0.7-0.2-1-0.3l-1.4-0.7v1.6c-0.4,1.6-1.4,3-2.8,4c-1.5,0.9-3.2,1.3-4.9,0.9  c-0.9-0.2-1.7-0.6-2.6-1.2l-1-0.8l-0.5,1.2C-212.5,391.1-215.5,392.7-218.6,392z"/><path d="M-219.3,397.1c0-2-1.6-3.6-3.6-3.6s-3.6,1.6-3.6,3.6s1.6,3.6,3.6,3.6C-220.8,400.7-219.3,399.2-219.3,397.1z M-224.5,397.1  c0-0.9,0.7-1.6,1.6-1.6s1.6,0.7,1.6,1.6c0,0.9-0.7,1.6-1.6,1.6C-223.7,398.7-224.5,398-224.5,397.1z"/><path d="M-229,402.4c0,1.2,1.1,2.3,2.3,2.3c1.2,0,2.3-1.1,2.3-2.3s-1.1-2.3-2.3-2.3C-227.9,400.1-229,401.2-229,402.4z   M-226.4,402.4c0,0.1-0.2,0.3-0.3,0.3c-0.1,0-0.3-0.2-0.3-0.3s0.2-0.3,0.3-0.3C-226.5,402.1-226.4,402.3-226.4,402.4z"/><path d="M-203.6,397.3c0.1-1.9-1.4-3.6-3.3-3.8c-2-0.1-3.6,1.4-3.8,3.3c-0.1,0.9,0.1,1.8,0.7,2.5c0.6,0.8,1.6,1.3,2.6,1.3  c0.1,0,0.2,0,0.2,0C-205.2,400.6-203.7,399.2-203.6,397.3z M-207.2,398.6L-207.2,398.6c-0.5,0-0.9-0.2-1.2-0.6  c-0.2-0.2-0.3-0.5-0.3-1c0.1-0.8,0.7-1.5,1.5-1.5c0,0,0.1,0,0.1,0c0.9,0.1,1.5,0.8,1.5,1.6C-205.6,398-206.4,398.7-207.2,398.6z"/><path d="M-203.9,404.8l0.2,0c1.3,0,2.3-1,2.3-2.2c0-1.3-1-2.3-2.2-2.3c-1.3,0-2.3,1-2.3,2.2C-206,403.6-205,404.6-203.9,404.8z   M-203.7,402.3c0.1,0,0.2,0.2,0.2,0.3c0,0.1-0.1,0.2-0.2,0.2c-0.1-0.1-0.3-0.2-0.3-0.3C-204,402.4-203.8,402.3-203.7,402.3z"/><text x="-260" y="457" fill="#000000" font-size="5px" font-weight="bold" font-family="'Helvetica Neue', Helvetica, Arial-Unicode, Arial, Sans-serif">Created by Aham Brahma</text><text x="-260" y="462" fill="#000000" font-size="5px" font-weight="bold" font-family="'Helvetica Neue', Helvetica, Arial-Unicode, Arial, Sans-serif">from the Noun Project</text></svg>