<svg xmlns="http://www.w3.org/2000/svg" width="20.507" height="16.232" viewBox="0 0 20.507 16.232"><defs><style>.a{fill:#585c72;}</style></defs><g transform="translate(0 0)"><path class="a" d="M19.905,55.38H12.921a1.512,1.512,0,0,0-.321-.473l-1.1-1.1a1.52,1.52,0,0,0-2.15,0l-1.1,1.1a1.511,1.511,0,0,0-.321.473H.6a.6.6,0,0,0,0,1.2H7.923a1.512,1.512,0,0,0,.321.473l1.1,1.1a1.52,1.52,0,0,0,2.15,0l1.1-1.1a1.511,1.511,0,0,0,.321-.473h6.984a.6.6,0,1,0,0-1.2Z" transform="translate(0 -53.358)"/></g><g transform="translate(0 5.573)"><g transform="translate(0 0)"><path class="a" d="M19.905,194.516H8.175a1.518,1.518,0,0,0-.322-.473l-1.1-1.1a1.52,1.52,0,0,0-2.15,0l-1.1,1.1a1.511,1.511,0,0,0-.321.473H.6a.6.6,0,0,0,0,1.2H3.175a1.512,1.512,0,0,0,.321.473l1.1,1.1a1.52,1.52,0,0,0,2.15,0l1.1-1.1a1.518,1.518,0,0,0,.322-.473H19.905a.6.6,0,0,0,0-1.2Z" transform="translate(0 -192.494)"/></g></g><g transform="translate(0 10.985)"><path class="a" d="M19.905,329.647H16.931a1.512,1.512,0,0,0-.321-.473l-1.1-1.1a1.52,1.52,0,0,0-2.15,0l-1.1,1.1a1.511,1.511,0,0,0-.321.473H.6a.6.6,0,0,0,0,1.2H11.932a1.512,1.512,0,0,0,.321.473l1.1,1.1a1.52,1.52,0,0,0,2.15,0l1.1-1.1a1.511,1.511,0,0,0,.321-.473h2.975a.6.6,0,1,0,0-1.2Z" transform="translate(0 -327.625)"/></g></svg>