<svg xmlns="http://www.w3.org/2000/svg" width="14.114" height="14.022" viewBox="0 0 14.114 14.022"><defs><style>.a{fill:#585c72;}</style></defs><g transform="translate(0 -1.668)"><path class="a" d="M273.526,141.4a14.443,14.443,0,0,1-2.556.291v2.454h2.908A13.311,13.311,0,0,0,273.526,141.4Z" transform="translate(-263.499 -135.881)"/><path class="a" d="M2.908,109.646a14.164,14.164,0,0,1,.378-2.941,9.313,9.313,0,0,1-1.962-.782A7,7,0,0,0,0,109.646Z" transform="translate(0 -101.381)"/><path class="a" d="M2.908,270.97H0a7,7,0,0,0,1.323,3.723,9.313,9.313,0,0,1,1.962-.782A14.162,14.162,0,0,1,2.908,270.97Z" transform="translate(0 -261.877)"/><path class="a" d="M271.747,2.1a2.083,2.083,0,0,0-.776-.432V4.984a13.659,13.659,0,0,0,2.33-.261,8.458,8.458,0,0,0-.468-1.151A4.6,4.6,0,0,0,271.747,2.1Z" transform="translate(-263.5 0)"/><path class="a" d="M69.007,406.48a8.641,8.641,0,0,0-1.651.639c.066.071.132.141.2.21a7.039,7.039,0,0,0,2.784,1.718,6.232,6.232,0,0,1-.8-1.241A9.319,9.319,0,0,1,69.007,406.48Z" transform="translate(-65.499 -393.651)"/><path class="a" d="M156.924,3.573a8.462,8.462,0,0,0-.468,1.151,13.659,13.659,0,0,0,2.33.261V1.668a2.083,2.083,0,0,0-.776.432A4.6,4.6,0,0,0,156.924,3.573Z" transform="translate(-152.142 0)"/><path class="a" d="M393.159,270.97a14.167,14.167,0,0,1-.378,2.941,9.312,9.312,0,0,1,1.962.782,7,7,0,0,0,1.323-3.723Z" transform="translate(-381.952 -261.877)"/><path class="a" d="M337.635,14.9a8.637,8.637,0,0,0,1.65-.639c-.066-.071-.132-.141-.2-.21a7.039,7.039,0,0,0-2.784-1.718,6.235,6.235,0,0,1,.8,1.241A9.317,9.317,0,0,1,337.635,14.9Z" transform="translate(-327.028 -10.367)"/><path class="a" d="M272.832,391.392a8.452,8.452,0,0,0,.468-1.151,13.651,13.651,0,0,0-2.33-.261V393.3a2.082,2.082,0,0,0,.776-.432A4.6,4.6,0,0,0,272.832,391.392Z" transform="translate(-263.499 -377.606)"/><path class="a" d="M392.781,106.707a14.167,14.167,0,0,1,.378,2.941h2.908a7,7,0,0,0-1.323-3.723A9.314,9.314,0,0,1,392.781,106.707Z" transform="translate(-381.952 -101.383)"/><path class="a" d="M270.97,270.97v2.454a14.447,14.447,0,0,1,2.556.291,13.312,13.312,0,0,0,.353-2.745Z" transform="translate(-263.499 -261.877)"/><path class="a" d="M138.385,144.147v-2.454a14.444,14.444,0,0,1-2.556-.291,13.312,13.312,0,0,0-.353,2.745Z" transform="translate(-131.742 -135.881)"/><path class="a" d="M69.007,14.9a9.321,9.321,0,0,1,.534-1.327,6.231,6.231,0,0,1,.8-1.241,7.039,7.039,0,0,0-2.784,1.718c-.069.069-.136.139-.2.21A8.64,8.64,0,0,0,69.007,14.9Z" transform="translate(-65.499 -10.367)"/><path class="a" d="M337.636,406.48a9.313,9.313,0,0,1-.534,1.327,6.234,6.234,0,0,1-.8,1.241,7.039,7.039,0,0,0,2.784-1.718c.069-.069.136-.139.2-.21A8.64,8.64,0,0,0,337.636,406.48Z" transform="translate(-327.029 -393.651)"/><path class="a" d="M138.385,270.97h-2.908a13.309,13.309,0,0,0,.353,2.745,14.447,14.447,0,0,1,2.556-.291Z" transform="translate(-131.742 -261.877)"/><path class="a" d="M158.01,392.866a2.082,2.082,0,0,0,.776.432v-3.317a13.655,13.655,0,0,0-2.33.261,8.459,8.459,0,0,0,.468,1.151A4.6,4.6,0,0,0,158.01,392.866Z" transform="translate(-152.142 -377.607)"/></g></svg>