<svg xmlns="http://www.w3.org/2000/svg" width="21.27" height="21.583" viewBox="0 0 21.27 21.583"><defs><style>.a{fill:#5555a5;}</style></defs><g transform="translate(0 0)"><g transform="translate(0)"><path class="a" d="M8.242,0h-5a.626.626,0,0,0-.626.626v5a.626.626,0,0,0,.626.626h5a.626.626,0,0,0,.626-.626v-5A.626.626,0,0,0,8.242,0Z" transform="translate(-2.612 0)"/><path class="a" d="M133.63,0h-5A.626.626,0,0,0,128,.626v5a.626.626,0,0,0,.626.626h5a.626.626,0,0,0,.626-.626v-5A.626.626,0,0,0,133.63,0Z" transform="translate(-120.493 0)"/><path class="a" d="M8.242,125.388h-5a.626.626,0,0,0-.626.626v5a.626.626,0,0,0,.626.626h5a.626.626,0,0,0,.626-.626v-5A.626.626,0,0,0,8.242,125.388Z" transform="translate(-2.612 -117.881)"/><path class="a" d="M133.63,125.388h-5a.626.626,0,0,0-.626.626v5a.626.626,0,0,0,.626.626h5a.626.626,0,0,0,.626-.626v-5A.626.626,0,0,0,133.63,125.388Z" transform="translate(-120.493 -117.881)"/><path class="a" d="M259.018,0h-5a.626.626,0,0,0-.626.626v5a.626.626,0,0,0,.626.626h5a.626.626,0,0,0,.626-.626v-5A.626.626,0,0,0,259.018,0Z" transform="translate(-238.374 0)"/><path class="a" d="M259.018,125.388h-5a.626.626,0,0,0-.626.626v5a.626.626,0,0,0,.626.626h5a.626.626,0,0,0,.626-.626v-5A.626.626,0,0,0,259.018,125.388Z" transform="translate(-238.374 -117.881)"/><path class="a" d="M8.242,256h-5a.626.626,0,0,0-.626.626v5a.626.626,0,0,0,.626.626h5a.626.626,0,0,0,.626-.626v-5A.626.626,0,0,0,8.242,256Z" transform="translate(-2.612 -240.673)"/><path class="a" d="M133.63,256h-5a.626.626,0,0,0-.626.626v5a.626.626,0,0,0,.626.626h5a.626.626,0,0,0,.626-.626v-5A.626.626,0,0,0,133.63,256Z" transform="translate(-120.493 -240.673)"/><path class="a" d="M259.018,256h-5a.626.626,0,0,0-.626.626v5a.626.626,0,0,0,.626.626h5a.626.626,0,0,0,.626-.626v-5A.626.626,0,0,0,259.018,256Z" transform="translate(-238.374 -240.673)"/></g></g></svg>