<svg xmlns="http://www.w3.org/2000/svg" width="21.27" height="18.043" viewBox="0 0 21.27 18.043"><defs><style>.a{fill:#bbbfce;}</style></defs><g transform="translate(16.555 9.741)"><path class="a" d="M400.139,273.32h-1.645a4.279,4.279,0,0,1,.259,1.471v6.217a1.834,1.834,0,0,1-.106.614h2.719a1.844,1.844,0,0,0,1.842-1.842V276.39A3.074,3.074,0,0,0,400.139,273.32Z" transform="translate(-398.494 -273.32)"/></g><g transform="translate(0 9.741)"><path class="a" d="M4.456,274.792a4.279,4.279,0,0,1,.259-1.471H3.07A3.074,3.074,0,0,0,0,276.391v3.389a1.844,1.844,0,0,0,1.842,1.842H4.562a1.834,1.834,0,0,1-.106-.614Z" transform="translate(0 -273.321)"/></g><g transform="translate(5.684 8.141)"><path class="a" d="M143.66,234.815H139.9a3.074,3.074,0,0,0-3.07,3.07V244.1a.614.614,0,0,0,.614.614h8.673a.614.614,0,0,0,.614-.614v-6.217A3.074,3.074,0,0,0,143.66,234.815Z" transform="translate(-136.829 -234.815)"/></g><g transform="translate(6.942)"><path class="a" d="M170.807,38.84a3.692,3.692,0,1,0,3.693,3.693A3.7,3.7,0,0,0,170.807,38.84Z" transform="translate(-167.114 -38.84)"/></g><g transform="translate(1.389 3.442)"><path class="a" d="M36.2,121.689a2.76,2.76,0,1,0,2.762,2.762A2.765,2.765,0,0,0,36.2,121.689Z" transform="translate(-33.443 -121.689)"/></g><g transform="translate(14.358 3.442)"><path class="a" d="M348.369,121.689a2.762,2.762,0,1,0,2.762,2.762A2.765,2.765,0,0,0,348.369,121.689Z" transform="translate(-345.607 -121.689)"/></g></svg>