<svg xmlns="http://www.w3.org/2000/svg" width="102.575" height="60.192" viewBox="0 0 102.575 60.192"><defs><style>.a{fill:#121c42;}.b{fill:#f35421;}</style></defs><g transform="translate(36.094 2.229)"><path class="a" d="M47.506,26.307h4.318L41.274,16.195,49.911,6.9H45.866l-7.789,8.363V6.9h-3.17V26.307h3.17V17.233Z" transform="translate(-71 31.383)"/><path class="a" d="M55.326,26.162a4.372,4.372,0,0,0,3.99-2.132v1.859h3.006V12.223H59.317v6.723c0,2.952-1.367,4.482-3.334,4.482-1.749,0-2.733-1.339-2.733-3.526v-7.68H50.243v8.172C50.243,23.893,52.183,26.162,55.326,26.162Z" transform="translate(-69.794 31.801)"/><path class="a" d="M73.971,26.387h3.854l-7.461-7.571,6.095-6.095h-3.8l-5.22,5.193V5.888H64.432v20.5h3.006V19.8Z" transform="translate(-68.678 31.303)"/><path class="a" d="M77.529,26.387h3.006V5.888H77.529Z" transform="translate(-67.647 31.303)"/><path class="a" d="M88.976,26.182a5.452,5.452,0,0,0,4.373-2.1v1.831h3.006V12.243H93.349v1.831a5.452,5.452,0,0,0-4.373-2.1,6.8,6.8,0,0,0-6.587,7.106A6.8,6.8,0,0,0,88.976,26.182Zm.547-2.733a4.107,4.107,0,0,1-4.072-4.373,4.083,4.083,0,1,1,8.145,0A4.107,4.107,0,0,1,89.523,23.449Z" transform="translate(-67.265 31.781)"/><path class="a" d="M113.095,26.387h3.854l-7.462-7.571,6.1-6.095h-3.8l-5.221,5.193V5.888h-3.006v20.5h3.006V19.8Z" transform="translate(-65.6 31.303)"/><path class="a" d="M118.193,9.754a2.009,2.009,0,0,0,0-4.018,2.009,2.009,0,1,0,0,4.018Zm-1.5,16.645H119.7V12.733h-3.006Z" transform="translate(-64.608 31.291)"/><path class="a" d="M128.471,26.3a7.285,7.285,0,0,0,2.241-.3V23.323a4.246,4.246,0,0,1-1.613.273c-1.558,0-2.3-.6-2.3-2.323V15.178h3.908V12.5H126.8V8.7H123.8v3.8h-2.843v2.678H123.8v6.587C123.8,24.854,125.848,26.3,128.471,26.3Z" transform="translate(-64.232 31.524)"/><path class="b" d="M14.932,5.512a1.49,1.49,0,0,1,2.931,0l.849,4.58A1.49,1.49,0,0,0,21.2,10.9l3.379-3.206a1.49,1.49,0,0,1,2.371,1.723l-2.005,4.2a1.49,1.49,0,0,0,1.54,2.119l4.618-.608a1.49,1.49,0,0,1,.906,2.787l-4.093,2.223a1.49,1.49,0,0,0,0,2.62l4.093,2.223a1.49,1.49,0,0,1-.906,2.787l-4.618-.608a1.49,1.49,0,0,0-1.54,2.119l2.005,4.2a1.49,1.49,0,0,1-2.371,1.723L21.2,32a1.49,1.49,0,0,0-2.491.809l-.849,4.58a1.49,1.49,0,0,1-2.931,0l-.849-4.58A1.49,1.49,0,0,0,11.592,32L8.213,35.211a1.49,1.49,0,0,1-2.371-1.723l2.005-4.2a1.49,1.49,0,0,0-1.54-2.119l-4.618.608a1.49,1.49,0,0,1-.906-2.787l4.093-2.223a1.49,1.49,0,0,0,0-2.62L.784,17.921a1.49,1.49,0,0,1,.906-2.787l4.618.608a1.49,1.49,0,0,0,1.54-2.119l-2.005-4.2A1.49,1.49,0,0,1,8.213,7.695L11.592,10.9a1.49,1.49,0,0,0,2.491-.809Z" transform="translate(-1.029 -6.522)"/></g></svg>