<svg xmlns="http://www.w3.org/2000/svg" width="12.164" height="10.739" viewBox="0 0 12.164 10.739"><defs><style>.a{fill:#585c72;}</style></defs><path class="a" d="M8.933,30a2.88,2.88,0,0,0-1.8.622,4.1,4.1,0,0,0-1.052,1.266A4.1,4.1,0,0,0,5.03,30.622,2.88,2.88,0,0,0,3.231,30,3.3,3.3,0,0,0,0,33.5c0,2.159,1.733,3.635,4.357,5.871.446.38.951.81,1.475,1.269a.38.38,0,0,0,.5,0c.525-.459,1.03-.889,1.476-1.269,2.623-2.236,4.356-3.712,4.356-5.871A3.3,3.3,0,0,0,8.933,30Z" transform="translate(0 -30)"/></svg>