<svg xmlns="http://www.w3.org/2000/svg" width="29" height="29" viewBox="0 0 29 29"><defs><style>.a{fill:#fff;}.b{fill:#ff0f0f;}</style></defs><rect class="a" width="29" height="29" rx="14.5"/><g transform="translate(6 7)"><path class="b" d="M12.564,30a4.05,4.05,0,0,0-2.53.874,5.762,5.762,0,0,0-1.48,1.78,5.762,5.762,0,0,0-1.48-1.78A4.05,4.05,0,0,0,4.544,30,4.644,4.644,0,0,0,0,34.929c0,3.036,2.437,5.113,6.127,8.257.627.534,1.337,1.139,2.075,1.785a.535.535,0,0,0,.7,0c.738-.646,1.448-1.251,2.075-1.785,3.689-3.144,6.127-5.221,6.127-8.257A4.644,4.644,0,0,0,12.564,30Z" transform="translate(0 -30)"/></g></svg>