<svg width="14" height="14" viewBox="0 0 14 14" fill="none" xmlns="http://www.w3.org/2000/svg">
<path opacity="0.2" d="M11.9 0H2.1C1.54305 0 1.0089 0.232894 0.615076 0.647448C0.221249 1.062 0 1.62426 0 2.21053V13.2632C0.00021375 13.3937 0.0333822 13.5219 0.0961103 13.6345C0.158839 13.7472 0.248874 13.8402 0.357 13.9042C0.461619 13.9666 0.579748 13.9996 0.7 14C0.825638 14 0.948951 13.9643 1.057 13.8968L4.2 11.8926C4.31618 11.8198 4.4499 11.784 4.585 11.7895H11.9C12.457 11.7895 12.9911 11.5566 13.3849 11.142C13.7788 10.7275 14 10.1652 14 9.57895V2.21053C14 1.62426 13.7788 1.062 13.3849 0.647448C12.9911 0.232894 12.457 0 11.9 0ZM4.2 6.63158C4.06155 6.63158 3.92622 6.58836 3.8111 6.5074C3.69599 6.42643 3.60627 6.31135 3.55328 6.17671C3.5003 6.04207 3.48644 5.89392 3.51345 5.75099C3.54046 5.60805 3.60713 5.47676 3.70503 5.37371C3.80292 5.27066 3.92765 5.20048 4.06344 5.17205C4.19922 5.14362 4.33997 5.15821 4.46788 5.21398C4.59579 5.26975 4.70511 5.3642 4.78203 5.48537C4.85895 5.60654 4.9 5.749 4.9 5.89474C4.9 6.09016 4.82625 6.27758 4.69497 6.41576C4.5637 6.55395 4.38565 6.63158 4.2 6.63158ZM7 6.63158C6.86155 6.63158 6.72621 6.58836 6.6111 6.5074C6.49599 6.42643 6.40627 6.31135 6.35328 6.17671C6.3003 6.04207 6.28644 5.89392 6.31345 5.75099C6.34046 5.60805 6.40713 5.47676 6.50503 5.37371C6.60292 5.27066 6.72765 5.20048 6.86344 5.17205C6.99922 5.14362 7.13997 5.15821 7.26788 5.21398C7.39579 5.26975 7.50511 5.3642 7.58203 5.48537C7.65895 5.60654 7.7 5.749 7.7 5.89474C7.7 6.09016 7.62625 6.27758 7.49497 6.41576C7.3637 6.55395 7.18565 6.63158 7 6.63158ZM9.8 6.63158C9.66155 6.63158 9.52621 6.58836 9.4111 6.5074C9.29599 6.42643 9.20627 6.31135 9.15328 6.17671C9.1003 6.04207 9.08644 5.89392 9.11345 5.75099C9.14046 5.60805 9.20713 5.47676 9.30503 5.37371C9.40292 5.27066 9.52765 5.20048 9.66344 5.17205C9.79922 5.14362 9.93997 5.15821 10.0679 5.21398C10.1958 5.26975 10.3051 5.3642 10.382 5.48537C10.4589 5.60654 10.5 5.749 10.5 5.89474C10.5 6.09016 10.4263 6.27758 10.295 6.41576C10.1637 6.55395 9.98565 6.63158 9.8 6.63158Z" fill="#121212"/>
</svg>
