<svg xmlns="http://www.w3.org/2000/svg" width="10.908" height="11.635" viewBox="0 0 10.908 11.635"><defs><style>.a{fill:#585c72;}</style></defs><g transform="translate(-16)"><g transform="translate(16)"><path class="a" d="M24.863,7.545a2.038,2.038,0,0,0-1.64.835L20,6.73a1.93,1.93,0,0,0-.06-1.335l3.373-2.03a2.034,2.034,0,1,0-.5-1.319,2.026,2.026,0,0,0,.142.735L19.576,4.817a2.042,2.042,0,1,0,.129,2.528L22.918,8.99a2.017,2.017,0,0,0-.1.6,2.045,2.045,0,1,0,2.045-2.045Z" transform="translate(-16)"/></g></g></svg>