<svg width="18" height="20" viewBox="0 0 18 20" fill="none" xmlns="http://www.w3.org/2000/svg">
<path d="M17.4201 8.18019L9.71012 0.300193C9.61715 0.206464 9.50655 0.13207 9.38469 0.0813015C9.26283 0.0305328 9.13213 0.00439453 9.00012 0.00439453C8.8681 0.00439453 8.7374 0.0305328 8.61554 0.0813015C8.49368 0.13207 8.38308 0.206464 8.29012 0.300193L0.580115 8.19019C0.393552 8.37826 0.24621 8.60152 0.146643 8.847C0.0470768 9.09248 -0.00272978 9.3553 0.000115364 9.62019V18.0002C-0.00065946 18.5121 0.194889 19.0048 0.54649 19.3769C0.898091 19.749 1.37898 19.972 1.89012 20.0002H16.1101C16.6213 19.972 17.1021 19.749 17.4537 19.3769C17.8053 19.0048 18.0009 18.5121 18.0001 18.0002V9.62019C18.0009 9.08313 17.7929 8.56678 17.4201 8.18019ZM7.00012 18.0002V12.0002H11.0001V18.0002H7.00012ZM16.0001 18.0002H13.0001V11.0002C13.0001 10.735 12.8948 10.4806 12.7072 10.2931C12.5197 10.1055 12.2653 10.0002 12.0001 10.0002H6.00012C5.7349 10.0002 5.48055 10.1055 5.29301 10.2931C5.10547 10.4806 5.00012 10.735 5.00012 11.0002V18.0002H2.00012V9.58019L9.00012 2.43019L16.0001 9.62019V18.0002Z" fill="#121212"/>
</svg>
