<svg width="20" height="18" viewBox="0 0 20 18" fill="none" xmlns="http://www.w3.org/2000/svg">
<path d="M7 8C7.79113 8 8.56448 7.76541 9.22228 7.32588C9.88008 6.88635 10.3928 6.26164 10.6955 5.53074C10.9983 4.79983 11.0775 3.99556 10.9231 3.21964C10.7688 2.44372 10.3878 1.73098 9.82843 1.17157C9.26902 0.612164 8.55629 0.231202 7.78036 0.0768607C7.00444 -0.0774802 6.20017 0.00173312 5.46927 0.304484C4.73836 0.607234 4.11365 1.11992 3.67412 1.77772C3.2346 2.43552 3 3.20888 3 4C3 5.06087 3.42143 6.07828 4.17157 6.82843C4.92172 7.57857 5.93913 8 7 8Z" fill="#5555A5"/>
<path d="M15 10C15.5933 10 16.1734 9.82405 16.6667 9.49441C17.1601 9.16477 17.5446 8.69623 17.7716 8.14805C17.9987 7.59987 18.0581 6.99667 17.9424 6.41473C17.8266 5.83279 17.5409 5.29824 17.1213 4.87868C16.7018 4.45912 16.1672 4.1734 15.5853 4.05765C15.0033 3.94189 14.4001 4.0013 13.8519 4.22836C13.3038 4.45543 12.8352 4.83994 12.5056 5.33329C12.1759 5.82664 12 6.40666 12 7C12 7.79565 12.3161 8.55871 12.8787 9.12132C13.4413 9.68393 14.2044 10 15 10Z" fill="#5555A5"/>
<path d="M19 17.0003C19.2652 17.0003 19.5196 16.8949 19.7071 16.7074C19.8946 16.5199 20 16.2655 20 16.0003C19.9992 15.0657 19.7365 14.15 19.2416 13.3572C18.7468 12.5643 18.0396 11.9261 17.2003 11.5148C16.3611 11.1035 15.4234 10.9356 14.4936 11.0303C13.5638 11.125 12.6791 11.4783 11.94 12.0503C10.9605 11.0747 9.71406 10.4109 8.35782 10.1427C7.00159 9.87455 5.59632 10.014 4.31923 10.5434C3.04213 11.0729 1.95041 11.9686 1.18174 13.1177C0.413069 14.2668 0.00187019 15.6178 0 17.0003C0 17.2655 0.105357 17.5199 0.292893 17.7074C0.48043 17.8949 0.734784 18.0003 1 18.0003H13C13.2652 18.0003 13.5196 17.8949 13.7071 17.7074C13.8946 17.5199 14 17.2655 14 17.0003" fill="#5555A5"/>
</svg>
