<svg width="20" height="18" viewBox="0 0 20 18" fill="none" xmlns="http://www.w3.org/2000/svg">
<path d="M5 18H15V4H14V2.5C14 1.83696 13.7366 1.20107 13.2678 0.732233C12.7989 0.263392 12.163 0 11.5 0H8.5C7.83696 0 7.20107 0.263392 6.73223 0.732233C6.26339 1.20107 6 1.83696 6 2.5V4H5V18ZM8 2.5C8 2.36739 8.05268 2.24021 8.14645 2.14645C8.24021 2.05268 8.36739 2 8.5 2H11.5C11.6326 2 11.7598 2.05268 11.8536 2.14645C11.9473 2.24021 12 2.36739 12 2.5V4H8V2.5Z" fill="#5555A5"/>
<path d="M17 4V18C17.7956 18 18.5587 17.6839 19.1213 17.1213C19.6839 16.5587 20 15.7956 20 15V7C20 6.20435 19.6839 5.44129 19.1213 4.87868C18.5587 4.31607 17.7956 4 17 4Z" fill="#5555A5"/>
<path d="M3 4C2.20435 4 1.44129 4.31607 0.87868 4.87868C0.316071 5.44129 0 6.20435 0 7V15C0 15.7956 0.316071 16.5587 0.87868 17.1213C1.44129 17.6839 2.20435 18 3 18V4Z" fill="#5555A5"/>
</svg>
