<svg xmlns="http://www.w3.org/2000/svg" width="21.27" height="17.725" viewBox="0 0 21.27 17.725"><defs><style>.a{fill:#bbbfce;}</style></defs><path class="a" d="M14.2,5.988a.887.887,0,0,1-.886-.886V3.773H9.773V5.1A.886.886,0,1,1,8,5.1V3.773A1.774,1.774,0,0,1,9.773,2h3.545A1.774,1.774,0,0,1,15.09,3.773V5.1A.887.887,0,0,1,14.2,5.988Z" transform="translate(-0.91 -2)"/><path class="a" d="M11.264,14.952a1.825,1.825,0,0,1-.629.106,1.942,1.942,0,0,1-.682-.124L0,11.62v6.762a2.436,2.436,0,0,0,2.437,2.437h16.4a2.436,2.436,0,0,0,2.437-2.437V11.62Z" transform="translate(0 -3.094)"/><path class="a" d="M21.27,7.437v2.03L10.848,12.941a.656.656,0,0,1-.425,0L0,9.467V7.437A2.436,2.436,0,0,1,2.437,5h16.4A2.436,2.436,0,0,1,21.27,7.437Z" transform="translate(0 -2.341)"/></svg>