<svg xmlns="http://www.w3.org/2000/svg" width="160" height="600" viewBox="0 0 160 600" role="img" aria-label="Etyme — every contractor, every supplier, one record"><rect width="160" height="600" fill="#F0EEE6"/><clipPath id="c29"><rect x="0" y="288" width="160" height="312"/></clipPath><g clip-path="url(#c29)"><g transform="translate(0,284) scale(0.2)"><rect x="0" y="1450.5" width="800" height="3" rx="0" fill="#0D1426"/><rect x="42.5" y="1474" width="3" height="12" rx="0" fill="#0D1426"/><rect x="90.5" y="1474" width="3" height="12" rx="0" fill="#0D1426"/><rect x="138.5" y="1474" width="3" height="12" rx="0" fill="#0D1426"/><rect x="186.5" y="1474" width="3" height="12" rx="0" fill="#0D1426"/><rect x="234.5" y="1474" width="3" height="12" rx="0" fill="#0D1426"/><rect x="282.5" y="1474" width="3" height="12" rx="0" fill="#0D1426"/><rect x="330.5" y="1474" width="3" height="12" rx="0" fill="#0D1426"/><rect x="378.5" y="1474" width="3" height="12" rx="0" fill="#0D1426"/><rect x="426.5" y="1474" width="3" height="12" rx="0" fill="#0D1426"/><rect x="474.5" y="1474" width="3" height="12" rx="0" fill="#0D1426"/><rect x="522.5" y="1474" width="3" height="12" rx="0" fill="#0D1426"/><rect x="570.5" y="1474" width="3" height="12" rx="0" fill="#0D1426"/><rect x="618.5" y="1474" width="3" height="12" rx="0" fill="#0D1426"/><rect x="666.5" y="1474" width="3" height="12" rx="0" fill="#0D1426"/><rect x="714.5" y="1474" width="3" height="12" rx="0" fill="#0D1426"/><rect x="762.5" y="1474" width="3" height="12" rx="0" fill="#0D1426"/><rect x="64" y="148" width="108" height="12" rx="6" fill="#0D1426"/><circle cx="80" cy="206" r="6.21" fill="none" stroke="#0D1426" stroke-width="5.58"/><circle cx="130" cy="206" r="9" fill="#0D1426"/><circle cx="180" cy="206" r="9" fill="#0D1426"/><circle cx="230" cy="206" r="6.21" fill="none" stroke="#0D1426" stroke-width="5.58"/><circle cx="80" cy="256" r="9" fill="#0D1426"/><circle cx="130" cy="256" r="6.21" fill="none" stroke="#0D1426" stroke-width="5.58"/><circle cx="180" cy="256" r="6.21" fill="none" stroke="#0D1426" stroke-width="5.58"/><circle cx="230" cy="256" r="9" fill="#0D1426"/><circle cx="80" cy="306" r="6.21" fill="none" stroke="#0D1426" stroke-width="5.58"/><circle cx="130" cy="306" r="9" fill="#0D1426"/><circle cx="180" cy="306" r="6.21" fill="none" stroke="#0D1426" stroke-width="5.58"/><circle cx="230" cy="306" r="6.21" fill="none" stroke="#0D1426" stroke-width="5.58"/><rect x="440" y="148" width="112" height="12" rx="6" fill="#0D1426"/><rect x="452" y="208.5" width="286" height="3" rx="0" fill="#0D1426"/><circle cx="452" cy="210" r="14.65" fill="#F0EEE6"/><circle cx="452" cy="210" r="9.61" fill="none" stroke="#0D1426" stroke-width="2.87"/><circle cx="452" cy="210" r="2.87" fill="#0D1426"/><circle cx="547.33" cy="210" r="12.49" fill="#F0EEE6"/><circle cx="547.33" cy="210" r="7.73" fill="none" stroke="#0D1426" stroke-width="2.31"/><circle cx="547.33" cy="210" r="2.31" fill="#0D1426"/><circle cx="642.67" cy="210" r="12.49" fill="#F0EEE6"/><circle cx="642.67" cy="210" r="7.73" fill="none" stroke="#0D1426" stroke-width="2.31"/><circle cx="642.67" cy="210" r="2.31" fill="#0D1426"/><circle cx="738" cy="210" r="10.57" fill="#F0EEE6"/><circle cx="738" cy="210" r="6.06" fill="none" stroke="#0D1426" stroke-width="1.81"/><circle cx="738" cy="210" r="1.81" fill="#0D1426"/><path d="M188.64,549.62L607.36,354.38" fill="none" stroke="#0D1426" stroke-width="16" stroke-linecap="round" stroke-linejoin="round"/><rect x="64" y="626" width="322" height="140" rx="15.7" fill="#F0EEE6"/><rect x="66.1" y="628.1" width="317.8" height="135.8" rx="13.6" fill="none" stroke="#0D1426" stroke-width="4.2"/><rect x="99.42" y="654" width="141.68" height="10.5" rx="5.25" fill="#0D1426"/><rect x="99.42" y="684.8" width="109.48" height="29.4" rx="4.9" fill="#0D1426"/><rect x="99.42" y="731" width="115.92" height="7.7" rx="3.85" fill="#0D1426"/><rect x="414" y="626" width="322" height="140" rx="15.7" fill="#F0EEE6"/><rect x="416.1" y="628.1" width="317.8" height="135.8" rx="13.6" fill="none" stroke="#0D1426" stroke-width="4.2"/><rect x="449.42" y="654" width="141.68" height="10.5" rx="5.25" fill="#0D1426"/><rect x="449.42" y="684.8" width="161" height="29.4" rx="4.9" fill="#0D1426"/><rect x="449.42" y="731" width="115.92" height="7.7" rx="3.85" fill="#0D1426"/><rect x="64" y="820" width="672" height="340" rx="26.7" fill="#F0EEE6"/><rect x="67" y="823" width="666" height="334" rx="23.7" fill="none" stroke="#0D1426" stroke-width="6"/><rect x="99.7" y="852.3" width="100.8" height="17" rx="8.5" fill="#0D1426"/><rect x="663.34" y="852.3" width="36.96" height="17" rx="8.5" fill="#0D1426"/><rect x="99.7" y="895.25" width="600.6" height="3" rx="0" fill="#0D1426"/><circle cx="123.12" cy="926.03" r="9.66" fill="#0D1426"/><rect x="153.56" y="920.76" width="204.2" height="10.25" rx="5.12" fill="#0D1426"/><rect x="615.41" y="921.34" width="84.89" height="9.07" rx="4.54" fill="#0D1426"/><rect x="533.45" y="921.34" width="49.76" height="9.07" rx="4.54" fill="#0D1426"/><rect x="99.7" y="953.8" width="600.6" height="3" rx="0" fill="#0D1426"/><circle cx="123.12" cy="984.57" r="6.67" fill="none" stroke="#0D1426" stroke-width="5.99"/><rect x="153.56" y="979.3" width="144.14" height="10.25" rx="5.12" fill="#0D1426"/><rect x="615.41" y="979.89" width="84.89" height="9.07" rx="4.54" fill="#0D1426"/><rect x="533.45" y="979.89" width="49.76" height="9.07" rx="4.54" fill="#0D1426"/><rect x="99.7" y="1012.34" width="600.6" height="3" rx="0" fill="#0D1426"/><circle cx="123.12" cy="1043.11" r="9.66" fill="#0D1426"/><rect x="153.56" y="1037.85" width="180.18" height="10.25" rx="5.12" fill="#0D1426"/><rect x="615.41" y="1038.43" width="84.89" height="9.07" rx="4.54" fill="#0D1426"/><rect x="533.45" y="1038.43" width="49.76" height="9.07" rx="4.54" fill="#0D1426"/><rect x="99.7" y="1070.89" width="600.6" height="3" rx="0" fill="#0D1426"/><circle cx="123.12" cy="1101.66" r="9.66" fill="#0D1426"/><rect x="153.56" y="1096.39" width="120.12" height="10.25" rx="5.12" fill="#0D1426"/><rect x="615.41" y="1096.97" width="84.89" height="9.07" rx="4.54" fill="#0D1426"/><rect x="533.45" y="1096.97" width="49.76" height="9.07" rx="4.54" fill="#0D1426"/><rect x="64" y="1216" width="34" height="34" rx="6.8" fill="#0D1426"/><rect x="108.95" y="1217.95" width="30.1" height="30.1" rx="4.85" fill="none" stroke="#0D1426" stroke-width="3.9"/><rect x="150" y="1216" width="34" height="34" rx="6.8" fill="#0D1426"/><rect x="194.95" y="1217.95" width="30.1" height="30.1" rx="4.85" fill="none" stroke="#0D1426" stroke-width="3.9"/><rect x="236" y="1216" width="34" height="34" rx="6.8" fill="#0D1426"/><rect x="64" y="1259" width="34" height="34" rx="6.8" fill="#0D1426"/><rect x="108.95" y="1260.95" width="30.1" height="30.1" rx="4.85" fill="none" stroke="#0D1426" stroke-width="3.9"/><rect x="150" y="1259" width="34" height="34" rx="6.8" fill="#0D1426"/><rect x="194.95" y="1260.95" width="30.1" height="30.1" rx="4.85" fill="none" stroke="#0D1426" stroke-width="3.9"/><rect x="236" y="1259" width="34" height="34" rx="6.8" fill="#0D1426"/><rect x="64" y="1306.88" width="176" height="11.44" rx="5.72" fill="#0D1426"/><rect x="64" y="1344.28" width="176" height="11.44" rx="5.72" fill="#0D1426"/><rect x="64" y="1381.68" width="176" height="11.44" rx="5.72" fill="#0D1426"/><path d="M240,1312.6L284,1350" fill="none" stroke="#0D1426" stroke-width="6.29" stroke-linecap="round" stroke-linejoin="round"/><path d="M240,1350L284,1350" fill="none" stroke="#0D1426" stroke-width="6.29" stroke-linecap="round" stroke-linejoin="round"/><path d="M240,1387.4L284,1350" fill="none" stroke="#0D1426" stroke-width="6.29" stroke-linecap="round" stroke-linejoin="round"/><circle cx="330.2" cy="1350" r="46.2" fill="#0D1426"/><path d="M311.72,1351.39L325.58,1365.71L350.53,1334.29" fill="none" stroke="#F0EEE6" stroke-width="9.7" stroke-linecap="round" stroke-linejoin="round"/><rect x="387.95" y="1344.28" width="116.05" height="11.44" rx="5.72" fill="#0D1426"/><rect x="650" y="1376" width="28" height="76" rx="8.4" fill="#0D1426"/><rect x="690" y="1322" width="28" height="130" rx="8.4" fill="#0D1426"/><rect x="730" y="1268" width="28" height="184" rx="8.4" fill="#0D1426"/><circle cx="606" cy="1326.2" r="22.2" fill="#0D1426"/><rect x="574.92" y="1366.16" width="62.16" height="85.84" rx="21.13" fill="#0D1426"/></g></g><rect x="0" y="287.5" width="160" height="1" rx="0" fill="#0D1426"/><circle cx="26.32" cy="23.46" r="7.92" fill="#0D1426"/><rect x="25.38" y="19.94" width="1.46" height="6.9" rx="3.45" fill="#F0EEE6"/><path d="M26.11,26.39L27.1,26.81" fill="none" stroke="#F0EEE6" stroke-width="1.23" stroke-linecap="round" stroke-linejoin="round"/><path d="M24.25,22.66L28.6,20.62" fill="none" stroke="#F0EEE6" stroke-width="1.05" stroke-linecap="round" stroke-linejoin="round"/><text x="38.64" y="27.2" font-family="Inter,system-ui,-apple-system,'Helvetica Neue',Arial,sans-serif" font-size="11" font-weight="700" letter-spacing="-0.44" fill="#0D1426" text-anchor="start">etyme</text><rect x="44.75" y="20.88" width="0.99" height="1.3" rx="0" fill="#F0EEE6"/><rect x="47.18" y="20.88" width="1.54" height="1.3" rx="0" fill="#F0EEE6"/><path d="M44.52,22.59L48.9,20.55" fill="none" stroke="#0D1426" stroke-width="2.5" stroke-linecap="round" stroke-linejoin="round"/><text x="18.4" y="52.99" font-family="'Iowan Old Style','Palatino Linotype',Palatino,Georgia,Gelasio,serif" font-size="16.13" font-weight="400" letter-spacing="-0.32" fill="#0D1426" text-anchor="start">Every contractor.</text><text x="18.4" y="70.09" font-family="'Iowan Old Style','Palatino Linotype',Palatino,Georgia,Gelasio,serif" font-size="16.13" font-weight="400" letter-spacing="-0.32" fill="#0D1426" text-anchor="start">Every supplier.</text><text x="18.4" y="87.19" font-family="'Iowan Old Style','Palatino Linotype',Palatino,Georgia,Gelasio,serif" font-size="16.13" font-weight="400" letter-spacing="-0.32" fill="#0D1426" text-anchor="start">One record.</text><rect x="18.4" y="100.37" width="132.38" height="20.4" rx="4.57" fill="#0D1426"/><text x="28.8" y="113.37" font-family="Inter,system-ui,-apple-system,'Helvetica Neue',Arial,sans-serif" font-size="8" font-weight="600" letter-spacing="-0.04" fill="#F0EEE6" text-anchor="start">Open an example program</text><path d="M136.38,108.33L139.58,110.57L136.38,112.81" fill="none" stroke="#F0EEE6" stroke-width="1.04" stroke-linecap="round" stroke-linejoin="round"/></svg>